<?xml version="1.0" encoding="utf-8"?>
<svg xmlns="http://www.w3.org/2000/svg" xmlns:xlink="http://www.w3.org/1999/xlink" viewBox="0 0 600 650" width="600" height="650">

  <style>
    svg { background:#ffffff; }
    .slot { cursor:pointer; stroke:#0000; fill:#7dd36b; } /* everything green */
    .building { fill:#facc15; } /* yellow box */
    .label { font-size:12px; fill:#111; text-anchor:middle; pointer-events:none; font-family:Arial; }
  </style>

  <!-- Background Image - appears behind all other elements -->
  <image href="/IT-PARKING-MANAGEMENT/public/assets/MAPBACK.png" x="0" y="0" width="600" height="650" preserveAspectRatio="xMidYMid slice" opacity="0.9"/>

  <!-- YELLOW BUILDING BOX - Made transparent -->
  <rect id="building-it" class="building" x="120" y="250" width="360" height="360" fill="transparent" opacity="0"/>

  <!-- CENTER TEXT -->
  <text x="300" y="430" class="label" style="font-size:28px; font-weight:bold; fill:#000;">
    IT DEPARTMENT
  </text>

  <!-- LEFT GREEN FACULTY SLOTS -->
  <rect id="slot-1" class="slot" x="10" y="250" width="70" height="40" rx="4"/><text x="45" y="275" class="label">G1</text>
  <rect id="slot-2" class="slot" x="10" y="300" width="70" height="40" rx="4"/><text x="45" y="325" class="label">G2</text>
  <rect id="slot-3" class="slot" x="10" y="350" width="70" height="40" rx="4"/><text x="45" y="375" class="label">G3</text>
  <rect id="slot-4" class="slot" x="10" y="400" width="70" height="40" rx="4"/><text x="45" y="425" class="label">G4</text>
  <rect id="slot-5" class="slot" x="10" y="450" width="70" height="40" rx="4"/><text x="45" y="475" class="label">G5</text>
  <rect id="slot-6" class="slot" x="10" y="500" width="70" height="40" rx="4"/><text x="45" y="525" class="label">G6</text>
  <rect id="slot-7" class="slot" x="10" y="550" width="70" height="40" rx="4"/><text x="45" y="575" class="label">G7</text>

  <!-- TOP-LEFT ROW (R14–R18) -->
  <rect id="slot-15" class="slot" x="30" y="3" width="70" height="32" rx="3"/><text x="65" y="23" class="label">R15</text>
  <rect id="slot-16" class="slot" x="30" y="43"  width="70" height="32" rx="3"/><text x="65" y="63" class="label">R16</text>
  <rect id="slot-17" class="slot" x="30" y="83"  width="70" height="32" rx="3"/><text x="65" y="103" class="label">R17</text>
  <rect id="slot-18" class="slot" x="30" y="123" width="70" height="32" rx="3"/><text x="65" y="143" class="label">R18</text>
  <rect id="slot-19" class="slot" x="30" y="163" width="70" height="32" rx="3"/><text x="65" y="183" class="label">R19</text>

  <!-- HOD SLOT -->
  <rect id="slot-8" class="slot" x="160" y="200" width="60" height="30" rx="3"/><text x="190" y="220" class="label">HOD</text>

  <!-- TOP SMALL ROW (R1–R6) -->
  <rect id="slot-9"  class="slot" x="255" y="200" width="28" height="30" rx="3"/><text x="270" y="218" class="label">R1</text>
  <rect id="slot-10" class="slot" x="288" y="200" width="28" height="30" rx="3"/><text x="303" y="218" class="label">R2</text>
  <rect id="slot-11" class="slot" x="321" y="200" width="28" height="30" rx="3"/><text x="336" y="218" class="label">R3</text>
  <rect id="slot-12" class="slot" x="354" y="200" width="28" height="30" rx="3"/><text x="369" y="218" class="label">R4</text>
  <rect id="slot-13" class="slot" x="387" y="200" width="28" height="30" rx="3"/><text x="402" y="218" class="label">R5</text>
  <rect id="slot-14" class="slot" x="420" y="200" width="28" height="30" rx="3"/><text x="435" y="218" class="label">R6</text>

  <!-- RIGHT COLUMN RED SLOTS (now green) -->
  <rect id="slot-20" class="slot" x="520" y="220" width="40" height="40" rx="3"/><text x="540" y="246" class="label">R7</text>
  <rect id="slot-21" class="slot" x="520" y="270" width="40" height="40" rx="3"/><text x="540" y="296" class="label">R8</text>
  <rect id="slot-22" class="slot" x="520" y="320" width="40" height="40" rx="3"/><text x="540" y="346" class="label">R9</text>
  <rect id="slot-23" class="slot" x="520" y="370" width="40" height="40" rx="3"/><text x="540" y="396" class="label">R10</text>
  <rect id="slot-24" class="slot" x="520" y="420" width="40" height="40" rx="3"/><text x="540" y="446" class="label">R11</text>
  <rect id="slot-25" class="slot" x="520" y="470" width="40" height="40" rx="3"/><text x="540" y="496" class="label">R12</text>
  <rect id="slot-26" class="slot" x="520" y="520" width="40" height="40" rx="3"/><text x="540" y="546" class="label">R13</text>
  <rect id="slot-27" class="slot" x="520" y="570" width="40" height="40" rx="3"/><text x="540" y="596" class="label">R14</text>

</svg>
